<svg width="230" height="30" viewBox="0 0 230 30" fill="none" xmlns="http://www.w3.org/2000/svg">
<path d="M11 0H20.7527C25.6492 0 29.6188 3.95044 29.6188 8.82353V21.1765C29.6188 26.0495 25.6492 30 20.7527 30H19.8661C14.9695 30 11 26.0495 11 21.1765V0Z" fill="url(#paint0_linear)"/>
<path d="M0 8.82353C0 3.95044 3.96948 0 8.86608 0H18.6188V21.1765C18.6188 26.0495 14.6493 30 9.75268 30H8.86608C3.96948 30 0 26.0495 0 21.1765V8.82353Z" fill="url(#paint1_linear)"/>
<path d="M89.3631 16.36H87.1231V22H83.9031V8H87.1231V13.66H89.4431L93.1231 8H96.5431L91.9631 14.76L96.6831 22H93.0031L89.3631 16.36Z" fill="white"/>
<path d="M102.845 22.16C101.711 22.16 100.691 21.9267 99.7847 21.46C98.8914 20.98 98.1914 20.32 97.6847 19.48C97.178 18.64 96.9247 17.6867 96.9247 16.62C96.9247 15.5533 97.178 14.6 97.6847 13.76C98.1914 12.92 98.8914 12.2667 99.7847 11.8C100.691 11.32 101.711 11.08 102.845 11.08C103.978 11.08 104.991 11.32 105.885 11.8C106.778 12.2667 107.478 12.92 107.985 13.76C108.491 14.6 108.745 15.5533 108.745 16.62C108.745 17.6867 108.491 18.64 107.985 19.48C107.478 20.32 106.778 20.98 105.885 21.46C104.991 21.9267 103.978 22.16 102.845 22.16ZM102.845 19.6C103.645 19.6 104.298 19.3333 104.805 18.8C105.325 18.2533 105.585 17.5267 105.585 16.62C105.585 15.7133 105.325 14.9933 104.805 14.46C104.298 13.9133 103.645 13.64 102.845 13.64C102.045 13.64 101.385 13.9133 100.865 14.46C100.345 14.9933 100.085 15.7133 100.085 16.62C100.085 17.5267 100.345 18.2533 100.865 18.8C101.385 19.3333 102.045 19.6 102.845 19.6Z" fill="white"/>
<path d="M121.391 22V15.56L118.171 20.96H116.851L113.711 15.54V22H110.891V11.24H114.151L117.591 17.46L121.251 11.24H124.171L124.211 22H121.391Z" fill="white"/>
<path d="M137.899 11.24V22H134.779V13.8H130.299V22H127.199V11.24H137.899Z" fill="white"/>
<path d="M151.351 16.66C151.351 16.7 151.331 16.98 151.291 17.5H143.151C143.297 18.1667 143.644 18.6933 144.191 19.08C144.737 19.4667 145.417 19.66 146.231 19.66C146.791 19.66 147.284 19.58 147.711 19.42C148.151 19.2467 148.557 18.98 148.931 18.62L150.591 20.42C149.577 21.58 148.097 22.16 146.151 22.16C144.937 22.16 143.864 21.9267 142.931 21.46C141.997 20.98 141.277 20.32 140.771 19.48C140.264 18.64 140.011 17.6867 140.011 16.62C140.011 15.5667 140.257 14.62 140.751 13.78C141.257 12.9267 141.944 12.2667 142.811 11.8C143.691 11.32 144.671 11.08 145.751 11.08C146.804 11.08 147.757 11.3067 148.611 11.76C149.464 12.2133 150.131 12.8667 150.611 13.72C151.104 14.56 151.351 15.54 151.351 16.66ZM145.771 13.44C145.064 13.44 144.471 13.64 143.991 14.04C143.511 14.44 143.217 14.9867 143.111 15.68H148.411C148.304 15 148.011 14.46 147.531 14.06C147.051 13.6467 146.464 13.44 145.771 13.44Z" fill="white"/>
<path d="M162.411 13.8H158.771V22H155.671V13.8H152.031V11.24H162.411V13.8Z" fill="white"/>
<path d="M174.085 16.66C174.085 16.7 174.065 16.98 174.025 17.5H165.885C166.032 18.1667 166.378 18.6933 166.925 19.08C167.472 19.4667 168.152 19.66 168.965 19.66C169.525 19.66 170.018 19.58 170.445 19.42C170.885 19.2467 171.292 18.98 171.665 18.62L173.325 20.42C172.312 21.58 170.832 22.16 168.885 22.16C167.672 22.16 166.598 21.9267 165.665 21.46C164.732 20.98 164.012 20.32 163.505 19.48C162.998 18.64 162.745 17.6867 162.745 16.62C162.745 15.5667 162.992 14.62 163.485 13.78C163.992 12.9267 164.678 12.2667 165.545 11.8C166.425 11.32 167.405 11.08 168.485 11.08C169.538 11.08 170.492 11.3067 171.345 11.76C172.198 12.2133 172.865 12.8667 173.345 13.72C173.838 14.56 174.085 15.54 174.085 16.66ZM168.505 13.44C167.798 13.44 167.205 13.64 166.725 14.04C166.245 14.44 165.952 14.9867 165.845 15.68H171.145C171.038 15 170.745 14.46 170.265 14.06C169.785 13.6467 169.198 13.44 168.505 13.44Z" fill="white"/>
<path d="M176.477 11.24H179.577V15.44H184.257V11.24H187.377V22H184.257V17.98H179.577V22H176.477V11.24Z" fill="white"/>
<path d="M202.483 19.44V24.36H199.583V22H190.363V11.24H193.463V19.44H197.803V11.24H200.923V19.44H202.483Z" fill="white"/>
<path d="M204.445 11.24H207.545V17.64L212.785 11.24H215.645V22H212.545V15.6L207.325 22H204.445V11.24Z" fill="white"/>
<path d="M218.645 11.24H221.745V17.64L226.985 11.24H229.845V22H226.745V15.6L221.525 22H218.645V11.24Z" fill="white"/>
<path d="M53.5 8V22H50.28V10.64H43.96V22H40.74V8H53.5Z" fill="url(#paint2_linear)"/>
<path d="M63.0705 11.08C64.0705 11.08 64.9771 11.3133 65.7905 11.78C66.6171 12.2333 67.2638 12.88 67.7305 13.72C68.1971 14.5467 68.4305 15.5133 68.4305 16.62C68.4305 17.7267 68.1971 18.7 67.7305 19.54C67.2638 20.3667 66.6171 21.0133 65.7905 21.48C64.9771 21.9333 64.0705 22.16 63.0705 22.16C61.6971 22.16 60.6171 21.7267 59.8305 20.86V25.88H56.7105V11.24H59.6905V12.48C60.4638 11.5467 61.5905 11.08 63.0705 11.08ZM62.5305 19.6C63.3305 19.6 63.9838 19.3333 64.4905 18.8C65.0105 18.2533 65.2705 17.5267 65.2705 16.62C65.2705 15.7133 65.0105 14.9933 64.4905 14.46C63.9838 13.9133 63.3305 13.64 62.5305 13.64C61.7305 13.64 61.0705 13.9133 60.5505 14.46C60.0438 14.9933 59.7905 15.7133 59.7905 16.62C59.7905 17.5267 60.0438 18.2533 60.5505 18.8C61.0705 19.3333 61.7305 19.6 62.5305 19.6Z" fill="url(#paint3_linear)"/>
<path d="M75.6572 22.16C74.5238 22.16 73.5038 21.9267 72.5972 21.46C71.7038 20.98 71.0038 20.32 70.4972 19.48C69.9905 18.64 69.7372 17.6867 69.7372 16.62C69.7372 15.5533 69.9905 14.6 70.4972 13.76C71.0038 12.92 71.7038 12.2667 72.5972 11.8C73.5038 11.32 74.5238 11.08 75.6572 11.08C76.7905 11.08 77.8038 11.32 78.6972 11.8C79.5905 12.2667 80.2905 12.92 80.7972 13.76C81.3038 14.6 81.5572 15.5533 81.5572 16.62C81.5572 17.6867 81.3038 18.64 80.7972 19.48C80.2905 20.32 79.5905 20.98 78.6972 21.46C77.8038 21.9267 76.7905 22.16 75.6572 22.16ZM75.6572 19.6C76.4572 19.6 77.1105 19.3333 77.6172 18.8C78.1372 18.2533 78.3972 17.5267 78.3972 16.62C78.3972 15.7133 78.1372 14.9933 77.6172 14.46C77.1105 13.9133 76.4572 13.64 75.6572 13.64C74.8572 13.64 74.1972 13.9133 73.6772 14.46C73.1572 14.9933 72.8972 15.7133 72.8972 16.62C72.8972 17.5267 73.1572 18.2533 73.6772 18.8C74.1972 19.3333 74.8572 19.6 75.6572 19.6Z" fill="url(#paint4_linear)"/>
<defs>
<linearGradient id="paint0_linear" x1="15.3444" y1="-1.05882" x2="28.5243" y2="49.4429" gradientUnits="userSpaceOnUse">
<stop stop-color="#1890FF"/>
<stop offset="0.9999" stop-color="#15395B"/>
<stop offset="1" stop-color="#112A45"/>
</linearGradient>
<linearGradient id="paint1_linear" x1="-4.43304" y1="-7.41176" x2="13.0609" y2="41.1715" gradientUnits="userSpaceOnUse">
<stop stop-color="white" stop-opacity="0.69"/>
<stop offset="1" stop-color="#65B7F3"/>
</linearGradient>
<linearGradient id="paint2_linear" x1="61.1486" y1="8" x2="61.1486" y2="25.88" gradientUnits="userSpaceOnUse">
<stop offset="0.510417" stop-color="#177DDC"/>
<stop offset="1" stop-color="#164C7E"/>
</linearGradient>
<linearGradient id="paint3_linear" x1="61.1486" y1="8" x2="61.1486" y2="25.88" gradientUnits="userSpaceOnUse">
<stop offset="0.510417" stop-color="#177DDC"/>
<stop offset="1" stop-color="#164C7E"/>
</linearGradient>
<linearGradient id="paint4_linear" x1="61.1486" y1="8" x2="61.1486" y2="25.88" gradientUnits="userSpaceOnUse">
<stop offset="0.510417" stop-color="#177DDC"/>
<stop offset="1" stop-color="#164C7E"/>
</linearGradient>
</defs>
</svg>
