<svg width="18" height="16" viewBox="0 0 18 16" fill="none" xmlns="http://www.w3.org/2000/svg">
<path d="M17.7778 4.44444C17.7778 3.95556 17.3778 3.55556 16.8889 3.55556H16V1.77778C16 0.8 15.2 0 14.2222 0H1.77778C0.8 0 0 0.8 0 1.77778V14.2222C0 15.2 0.8 16 1.77778 16H14.2222C15.2 16 16 15.2 16 14.2222V12.4444H16.8889C17.3778 12.4444 17.7778 12.0444 17.7778 11.5556C17.7778 11.0667 17.3778 10.6667 16.8889 10.6667H16V8.88889H16.8889C17.3778 8.88889 17.7778 8.48889 17.7778 8C17.7778 7.51111 17.3778 7.11111 16.8889 7.11111H16V5.33333H16.8889C17.3778 5.33333 17.7778 4.93333 17.7778 4.44444ZM13.3333 14.2222H2.66667C2.17778 14.2222 1.77778 13.8222 1.77778 13.3333V2.66667C1.77778 2.17778 2.17778 1.77778 2.66667 1.77778H13.3333C13.8222 1.77778 14.2222 2.17778 14.2222 2.66667V13.3333C14.2222 13.8222 13.8222 14.2222 13.3333 14.2222ZM4 8.88889H7.55556C7.80444 8.88889 8 9.08444 8 9.33333V12C8 12.2489 7.80444 12.4444 7.55556 12.4444H4C3.75111 12.4444 3.55556 12.2489 3.55556 12V9.33333C3.55556 9.08444 3.75111 8.88889 4 8.88889ZM9.33333 3.55556H12C12.2489 3.55556 12.4444 3.75111 12.4444 4V5.77778C12.4444 6.02667 12.2489 6.22222 12 6.22222H9.33333C9.08444 6.22222 8.88889 6.02667 8.88889 5.77778V4C8.88889 3.75111 9.08444 3.55556 9.33333 3.55556ZM4 3.55556H7.55556C7.80444 3.55556 8 3.75111 8 4V7.55556C8 7.80444 7.80444 8 7.55556 8H4C3.75111 8 3.55556 7.80444 3.55556 7.55556V4C3.55556 3.75111 3.75111 3.55556 4 3.55556ZM9.33333 7.11111H12C12.2489 7.11111 12.4444 7.30667 12.4444 7.55556V12C12.4444 12.2489 12.2489 12.4444 12 12.4444H9.33333C9.08444 12.4444 8.88889 12.2489 8.88889 12V7.55556C8.88889 7.30667 9.08444 7.11111 9.33333 7.11111Z" fill="black"/>
</svg>
