<svg id="Слой_1" data-name="Слой 1" xmlns="http://www.w3.org/2000/svg" xmlns:xlink="http://www.w3.org/1999/xlink" viewBox="0 0 1900.85 1401.51"><defs><style>.cls-1{fill:#141414;}.cls-2{fill:#c4c4c4;}.cls-3{fill:#e5e5e5;}.cls-4,.cls-5{fill:#65b7f3;}.cls-5{opacity:0.4;}.cls-6{fill:url(#Безымянный_градиент_40);}</style><linearGradient id="Безымянный_градиент_40" x1="950.42" y1="-0.01" x2="950.42" y2="608.65" gradientUnits="userSpaceOnUse"><stop offset="0" stop-color="#ecf6fe"/><stop offset="1" stop-color="#def0fd" stop-opacity="0"/></linearGradient></defs><rect class="cls-1" x="783.93" y="619.51" width="321" height="782"/><ellipse class="cls-2" cx="944.93" cy="716.51" rx="527" ry="168"/><rect class="cls-2" x="417.93" y="548.51" width="1054" height="172"/><ellipse class="cls-3" cx="944.93" cy="548.51" rx="527" ry="168"/><ellipse class="cls-4" cx="944.43" cy="548.51" rx="463.5" ry="133"/><path class="cls-2" d="M945.92,1015.5,1430,782.25H461.82Z" transform="translate(0 0.01)"/><rect class="cls-2" x="783.93" y="927.51" width="321" height="88"/><ellipse class="cls-2" cx="944.43" cy="1010.01" rx="160.5" ry="41.5"/><path class="cls-5" d="M1900.85,0H0V124.06H2.11C-8.33,187.21,19.52,256.7,94.43,285.89L896.68,598.55a148,148,0,0,0,107.49,0l802.25-312.66c74.91-29.19,102.76-98.68,92.31-161.83h2.12Z" transform="translate(0 0.01)"/><path class="cls-6" d="M1900.85,0H0V147.06c0,1.76,0,3.53,0,5.29H0C.94,206.89,30.6,261,94.43,285.89L896.68,598.55a148,148,0,0,0,107.49,0l802.25-312.66c63.83-24.88,93.48-79,94.4-133.54h0Z" transform="translate(0 0.01)"/></svg>