<?xml version="1.0" encoding="utf-8"?>
<!-- Generator: Adobe Illustrator 25.1.0, SVG Export Plug-In . SVG Version: 6.00 Build 0)  -->
<svg version="1.1" id="Слой_1" xmlns="http://www.w3.org/2000/svg" x="0px" y="0px"
	 viewBox="0 0 1440 1670" style="enable-background:new 0 0 1440 1670;" xml:space="preserve">
<style type="text/css">
	.st0{fill:#141414;}
	.st1{fill:#C4C4C4;}
	.st2{fill:#E5E5E5;}
	.st3{fill:#FA8C16;}
	.st4{fill:#FA8C16;fill-opacity:0.5;}
	.st5{fill:url(#SVGID_1_);}
</style>
<rect x="552" y="619.5" class="st0" width="321" height="2196"/>
<ellipse class="st1" cx="713" cy="716.5" rx="527" ry="168"/>
<rect x="186" y="548.5" class="st1" width="1054" height="172"/>
<ellipse class="st2" cx="713" cy="548.5" rx="527" ry="168"/>
<ellipse class="st3" cx="712.5" cy="548.5" rx="463.5" ry="133"/>
<path class="st1" d="M714,1015.5l484.1-233.2H229.9L714,1015.5z"/>
<rect x="552" y="927.5" class="st1" width="321" height="88"/>
<ellipse class="st1" cx="712.5" cy="1010" rx="160.5" ry="41.5"/>
<path class="st4" d="M664.8,598.6c34.6,13.5,72.9,13.5,107.5,0l802.3-312.7C1727,226.5,1684.4,0,1520.8,0H-83.8
	C-247.5,0-290,226.5-137.5,285.9L664.8,598.6z"/>
<linearGradient id="SVGID_1_" gradientUnits="userSpaceOnUse" x1="718.5002" y1="1050.5" x2="718.5002" y2="1876.5" gradientTransform="matrix(1 0 0 -1 0 1670)">
	<stop  offset="0" style="stop-color:#FFFFFF;stop-opacity:0"/>
	<stop  offset="1" style="stop-color:#FFFFFF"/>
</linearGradient>
<path class="st5" d="M664.8,598.6c34.6,13.5,72.9,13.5,107.5,0l802.3-312.7C1727,226.5,1684.4,0,1520.8,0H-83.8
	C-247.5,0-290,226.5-137.5,285.9L664.8,598.6z"/>
</svg>
